<?xml version="1.0" encoding="UTF-8"?>
<svg id="Layer_2" data-name="Layer 2" xmlns="http://www.w3.org/2000/svg" viewBox="0 0 40.72 38.32">
  <defs>
    <style>
      .cls-1 {
        fill: #4ac1c4;
      }
    </style>
  </defs>
  <g id="Layer_1-2" data-name="Layer 1">
    <g>
      <g>
        <rect class="cls-1" x="18.56" y="15.57" width="3.59" height="3.59"/>
        <path class="cls-1" d="M35.75,18.4L21.54.64c-.65-.85-1.71-.85-2.36,0L4.97,18.4c-.33.42-.18.76.33.76h9.07v-3.59h-1.62c-.26,0-.33-.13-.16-.34l7.5-9.2c.17-.21.44-.21.61,0l7.42,9.19c.17.21.1.34-.16.34h-1.62v3.59h9.07c.52,0,.66-.34.33-.76Z"/>
      </g>
      <path class="cls-1" d="M32.45,21.56c-9.29,0-13.84,6.39-14.49,7.37-.06.08-.06.02-.05-.03.26-1.2.92-2.36,1.61-3.29-2.93-3.28-6.72-4.04-11.25-4.04-2.67,0-5.19.45-7.41,1.75-.27.16-.54.33-.81.5-.08.05-.05.14.04.14.26-.02.51-.02.77-.03,6.53-.11,12.72,3.43,16.6,8.89.19.27.37.54.54.81,2.48-4.82,7.03-8.57,11.56-9.4.13-.02.15.02.02.06-5.96,2.1-9.27,7.64-10.72,10.79.4.75.77,1.53,1.08,2.35.07.18.27.7.27.7.09.25.23.25.32,0,0,0,.27-.71.27-.72.63-1.67,1.49-3.21,2.48-4.61,4.03-5.68,10.56-9.26,17.36-8.87.09,0,.13-.09.05-.14-2.42-1.62-5.23-2.26-8.23-2.26Z"/>
    </g>
  </g>
</svg>