<?xml version="1.0" encoding="UTF-8"?>
<svg id="Layer_2" data-name="Layer 2" xmlns="http://www.w3.org/2000/svg" viewBox="0 0 271.06 230.65">
  <defs>
    <style>
      .cls-1 {
        fill: #4ac1c4;
      }

      .cls-2 {
        fill: #062841;
      }
    </style>
  </defs>
  <g id="Layer_1-2" data-name="Layer 1">
    <g>
      <g>
        <g>
          <path class="cls-2" d="M81.55,202.77v27.3h-4.8v-11.97h-18.13v11.97h-4.8v-27.3h4.8v11.23h18.13v-11.23h4.8Z"/>
          <path class="cls-2" d="M117.71,216.42c0,9.44-7.21,14.24-15.71,14.24s-15.75-4.8-15.75-14.24,7.21-14.19,15.75-14.19c8.5,0,15.71,4.76,15.71,14.19ZM112.76,216.42c0-6.04-3.86-10.18-10.76-10.18s-10.8,4.13-10.8,10.18,3.86,10.21,10.8,10.21c6.9,0,10.76-4.13,10.76-10.21Z"/>
          <path class="cls-2" d="M157.76,202.77v27.3h-4.8v-23.44l-10.3,23.44h-5.19l-10.3-23.44v23.44h-4.8v-27.3h5.71c1.13,0,2.14.66,2.59,1.69l9.36,21.35,9.36-21.35c.45-1.03,1.47-1.69,2.59-1.69h5.76Z"/>
          <path class="cls-2" d="M168.81,226.01v-19.19h17.7v-4.06h-22.5v27.3h22.85v-4.06h-18.06Z"/>
          <path class="cls-2" d="M217.25,221.84c0,5.15-3.86,8.81-13.41,8.81-10.18,0-14.23-3.78-14.23-8.7h5.15c.15,2.85,3.35,4.64,9.24,4.64,5.07,0,8.27-1.25,8.27-4.17,0-3.27-4.52-3-12.13-4.25-6.55-1.05-9.59-3.16-9.59-7.6,0-4.76,3.47-8.35,12.48-8.35s12.91,4.25,12.91,8.15h-4.91c-.24-1.99-2.3-4.09-8.11-4.09s-7.53,1.84-7.53,3.94c0,2.96,3.67,3.27,9.52,4.09,7.71,1.06,12.35,2.23,12.35,7.53Z"/>
          <path class="cls-2" d="M182.79,218.11h-12.73c-.09,0-.15-.07-.15-.15v-.23c0-2.11,1.71-3.82,3.82-3.82h11.57c.07,0,.12.05.12.12v1.47c0,1.44-1.18,2.62-2.62,2.62Z"/>
        </g>
        <g>
          <path class="cls-2" d="M34.8,186.79H15.03c-.19,0-.36.11-.43.29l-2.84,6.72c-.07.17-.24.29-.43.29H.47c-.34,0-.57-.35-.42-.66l17.05-36.84c.67-1.45,2.12-2.37,3.7-2.37h8.22c1.59,0,3.04.92,3.7,2.37l17,36.84c.14.31-.08.66-.42.66h-10.87c-.19,0-.36-.12-.43-.29l-2.78-6.71c-.06-.18-.23-.29-.42-.29ZM31.42,178.06l-6.08-14.4c-.16-.38-.7-.38-.86,0l-6.08,14.4c-.13.31.09.65.43.65h12.15c.34,0,.56-.34.43-.65Z"/>
          <path class="cls-2" d="M97.13,154.68v38.94c0,.26-.21.47-.47.47h-7.44c-2.66,0-5.18-1.24-6.79-3.36l-16.82-22.08c-.27-.35-.84-.16-.84.28v24.7c0,.26-.21.47-.47.47h-10.4c-.26,0-.47-.21-.47-.47v-38.94c0-.26.21-.47.47-.47h7.44c2.66,0,5.18,1.24,6.79,3.36l16.82,22.08c.27.35.84.16.84-.28v-24.7c0-.26.21-.47.47-.47h10.41c.25,0,.46.21.46.47Z"/>
          <path class="cls-2" d="M165.97,154.88l-18.02,38.94c-.08.16-.24.27-.42.27h-12.85c-.18,0-.35-.1-.42-.27l-18.02-38.94c-.14-.31.08-.66.42-.66h10.87c.19,0,.36.11.43.29l12.72,30.14c.16.38.7.38.86,0l12.72-30.14c.07-.17.24-.29.43-.29h10.87c.34,0,.57.35.42.66Z"/>
          <path class="cls-2" d="M181.02,154.68v38.94c0,.26-.21.47-.47.47h-10.4c-.26,0-.47-.21-.47-.47v-31.81c0-4.19,3.4-7.59,7.59-7.59h3.28c.26,0,.47.21.47.47Z"/>
          <path class="cls-2" d="M225.1,185.99h-25.44c-.26,0-.47-.21-.47-.47v-22.76c0-.26.21-.47.47-.47h24.93c.26,0,.47-.21.47-.47v-7.16c0-.26-.21-.47-.47-.47h-36.26c-.26,0-.47.21-.47.47v38.94c0,.26.21.47.47.47h36.78c.26,0,.47-.21.47-.47v-7.16c0-.24-.21-.45-.47-.45Z"/>
          <path class="cls-2" d="M270.6,162.3h-14.17c-.26,0-.47.21-.47.47v30.85c0,.26-.21.47-.47.47h-10.4c-.26,0-.47-.21-.47-.47v-30.85c0-.26-.21-.47-.47-.47h-14.17c-.26,0-.47-.21-.47-.47v-7.16c0-.26.21-.47.47-.47h40.59c.26,0,.47.21.47.47v7.16c.01.26-.2.47-.46.47Z"/>
        </g>
        <path class="cls-2" d="M218.62,177.47h-17c-.19,0-.35-.15-.35-.35v-.33c0-3.92,3.18-7.11,7.11-7.11h14.75c.14,0,.26.12.26.26v2.75c0,2.64-2.13,4.78-4.77,4.78Z"/>
      </g>
      <g>
        <g>
          <rect class="cls-1" x="129.28" y="54.18" width="12.51" height="12.51"/>
          <path class="cls-1" d="M189.1,64.06L139.63,2.22c-2.25-2.96-5.95-2.96-8.2,0l-49.47,61.84c-1.16,1.45-.64,2.63,1.14,2.63h31.58v-12.51h-5.64c-.89,0-1.14-.47-.55-1.19l26.12-32.01c.58-.72,1.54-.71,2.13.01l25.84,31.99c.59.73.34,1.19-.57,1.19h-5.64v12.51h31.58c1.8,0,2.31-1.19,1.15-2.63Z"/>
        </g>
        <path class="cls-1" d="M177.62,75.03c-32.34,0-48.19,22.23-50.44,25.65-.19.29-.21.07-.18-.12.9-4.18,3.21-8.2,5.6-11.46-10.21-11.41-23.38-14.08-39.17-14.08-9.29,0-18.06,1.58-25.8,6.1-.95.55-1.9,1.13-2.81,1.75-.26.18-.17.5.15.49.9-.05,1.78-.08,2.67-.09,22.72-.4,44.27,11.93,57.77,30.95.65.92,1.28,1.87,1.9,2.83,8.62-16.78,24.46-29.83,40.23-32.72.47-.08.51.06.08.21-20.75,7.3-32.27,26.59-37.32,37.57,1.41,2.62,2.68,5.34,3.77,8.18.24.61.92,2.45.92,2.45.3.86.8.86,1.1,0,0,0,.92-2.47.92-2.49,2.2-5.83,5.19-11.17,8.65-16.03,14.02-19.76,36.74-32.24,60.42-30.86.32.02.44-.3.18-.47-8.42-5.63-18.2-7.87-28.63-7.87Z"/>
      </g>
    </g>
  </g>
</svg>